<?xml version="1.0" encoding="UTF-8"?>
<svg width="24" height="24" viewBox="0 0 1024 1024" xmlns="http://www.w3.org/2000/svg">
  <!-- Globe/diffuser (primary - animates with light state) -->
  <path d="M223.109 547.802C223.109 454.893 349.254 547.802 504.861 547.802C660.468 547.802 786.613 454.893 786.613 547.802C786.613 640.71 660.468 716.027 504.861 716.027C349.254 716.027 223.109 640.71 223.109 547.802Z" fill="currentColor"/>
  <!-- Fixture/canopy (secondary - stays fixed) -->
  <path d="M655.369 310.15C655.547 317.949 658.106 335.21 655.369 342.519C650.823 354.658 643.61 360.224 633.916 368.858C624.116 377.586 610.516 386.917 598.816 392.885C632.877 400.742 667.523 406.411 701.001 416.458C726.067 423.98 750.157 434.564 773.952 445.441C791.192 453.322 808.715 461.285 823.886 472.63C852.599 494.103 878.973 518.602 904.887 543.36C913.929 551.999 920.577 561.149 926.857 571.948C929.096 575.797 929.835 591.867 929.583 596.234C921.899 596.234 868.049 596.234 858.825 596.234L850.636 596.234L740.86 596.234C740.86 580.061 739.859 584.771 740.86 568.323C497.784 566.33 496.794 568.323 255.709 568.323C256.209 584.272 255.209 580.285 255.709 596.234C214.567 595.206 173.887 596.234 132.283 596.234C109.964 596.234 75.9838 596.234 49.537 596.234C53.8299 586.673 69.3839 557.164 75.9838 549.011C88.4795 533.576 104.112 520.87 119.394 508.166C136.801 493.696 154.088 478.626 173.887 467.625C211.253 446.864 249.416 426.541 290.089 413.324C324.709 402.074 361.865 401.027 397.753 394.879C397.753 379.98 372.664 378.522 361.285 368.858C354.854 363.396 350.445 355.465 347.799 347.468C345.036 339.117 343.25 329.685 345.514 321.186C346.925 315.89 352.358 311.269 357.741 310.15C390.366 303.366 423.66 298.807 456.978 298.011C507.286 296.807 548.779 292.672 598.816 298.011C615.172 299.756 639.697 305.166 655.369 310.15Z" fill="currentColor" opacity="0.5"/>
</svg>
