<?xml version="1.0" encoding="UTF-8"?>
<svg width="24" height="24" viewBox="0 0 1024 1024" xmlns="http://www.w3.org/2000/svg">
  <path d="M517.192 195.507C511.367 195.507 511.367 195.507 505.543 195.507C505.543 226.436 507.437 257.441 505.543 288.295C504.182 310.459 503.357 333.53 495.812 354.022C491.249 366.413 482.168 378.861 470.824 382.587C428.535 396.477 383.524 395.844 340.268 405.109C279.821 418.055 205.057 436.545 146.188 465.017C120.817 477.289 95.8497 491.002 72.3331 507.373C38.8209 530.701 3.82847 567.701 9.71793 617.404C14.8398 660.628 56.4731 698.167 87.9414 715.37C124.983 735.619 162.697 754.897 201.932 768.806C250.71 786.098 300.771 798.966 351.144 808.676C404.11 818.886 457.65 829.196 511.367 828.456C571.072 827.632 630.342 815.435 689.202 804.016C735.118 795.107 780.727 783.258 825.217 767.563C861.207 754.867 895.84 737.375 929.924 719.098C962.326 701.724 1005.95 662.813 1013.74 619.682C1022.24 572.667 983.581 527.227 951.858 506.182C906.455 476.062 848.572 449.972 797.504 434.105C762.179 423.13 726.496 413.436 690.476 405.937C650.726 397.663 610.17 395.081 570.417 386.833C542.457 381.032 521.989 354.391 519.551 321.964C516.393 279.956 517.978 237.659 517.192 195.507Z" fill="currentColor"/>
</svg>
