<?xml version="1.0" encoding="UTF-8"?>
<svg width="24" height="24" viewBox="0 0 1024 1024" xmlns="http://www.w3.org/2000/svg">
  <path d="M801.767 474.898C651.072 474.898 653.396 474.644 500.036 473.666C507.011 542.331 508.655 612.961 520.846 680.894C523.408 695.167 531.812 709.485 543.548 718.002C555.007 726.318 571.16 724.285 584.966 727.426C584.966 742.427 584.966 742.427 584.966 757.428C498.187 757.893 411.406 756.848 324.627 756.339C324.627 742.317 324.627 742.317 324.627 728.294C337.522 726.16 352.852 729.729 363.313 721.892C378.183 710.752 391.068 694.04 394.681 675.814C407.753 609.869 409.329 542.161 412.274 474.644C258.418 474.644 259.51 474.898 105.244 474.898C111.703 439.169 107.993 384.457 124.621 352.181C141.276 319.852 169.291 292.289 200.733 274.015C231.482 256.145 268.868 252.187 304.166 247.834C365.534 240.265 427.595 237.972 489.427 238.41C538.981 238.761 589.138 239.963 637.625 250.197C671.354 257.316 705.206 269.646 733.138 289.849C757.989 307.823 779.069 333.068 791.166 361.251C804.222 391.669 796.843 442.164 801.767 474.898Z" fill="currentColor"/>
</svg>
